<?xml version="1.0" encoding="UTF-8"?><svg id="Layer_2" xmlns="http://www.w3.org/2000/svg" viewBox="0 0 230.24 315.95"><defs><style>.cls-1{fill:#010101;stroke:#231f20;}.cls-1,.cls-2{stroke-miterlimit:10;}.cls-2{fill:#231f20;stroke:#000;}</style></defs><g id="Layer_6"><g id="lightwork_austin_lockup"><path class="cls-1" d="m53.3,313.61l.1-.43s.05-.07.1-.07h.6c.62,0,1.3-.41,1.56-1.06l6.94-15.19s.07-.05.1-.05h.41s.1.05.1.1l.12,15.19c.05.6.46,1.01,1.1,1.01h.24c.07,0,.12.05.1.12l-.1.43s-.05.07-.07.07h-4.42c-.07,0-.12-.05-.1-.12l.1-.43s.05-.07.1-.07h.17c.5,0,.86-.24.96-.65.02-.05.02-.1.02-.14,0-.07,0-.12.02-.17l-.02-2.42h-4.01l-1.13,2.47c-.05.07-.1.19-.1.26-.02.1-.02.14-.02.22,0,.26.19.43.62.43h.6c.07,0,.12.05.1.12l-.1.43s-.05.07-.1.07h-3.89c-.07,0-.12-.05-.1-.12Zm4.37-4.49h3.72l-.07-7.99-3.65,7.99Z"/><path class="cls-1" d="m69.5,310.34l2.66-11.62c.02-.1.05-.19.05-.29,0-.43-.34-.72-.94-.72-.07,0-.1-.05-.1-.12l.07-.41s.05-.07.1-.07h4.22c.07,0,.1.05.1.12l-.07.41s-.05.07-.1.07h-.17c-.6,0-1.15.43-1.32,1.06l-2.66,11.64c-.07.31-.12.6-.12.86,0,1.27.82,1.82,1.82,1.82,1.27,0,2.86-.96,3.26-2.71l2.69-11.67c.02-.1.05-.22.05-.29,0-.43-.31-.72-.82-.72h-.31s-.07-.05-.07-.12l.07-.41s.02-.07.07-.07h3.29c.07,0,.1.05.1.12l-.07.41s-.05.07-.1.07h-.34c-.6,0-1.13.43-1.3,1.06l-2.66,11.62c-.53,2.33-2.64,3.48-4.49,3.48-1.61,0-3-.91-3.02-2.64,0-.26.02-.58.1-.89Z"/><path class="cls-1" d="m83.16,309.5s.05-.07.1-.07h.41c.07,0,.12.05.1.12-.1.5-.17.98-.17,1.44,0,1.34.62,2.26,2.23,2.26,1.85,0,3.17-1.42,3.17-3.22,0-1.37-.89-2.57-1.75-3.77-.98-1.32-2.04-2.76-2.04-4.61,0-2.59,1.92-4.66,4.58-4.66.67,0,1.2.14,1.66.38.17.12.41.19.58.19.24,0,.46-.12.58-.41.02-.02.07-.05.1-.05h.36c.07,0,.12.05.1.12l-.91,4.08s-.05.07-.1.07h-.43c-.07,0-.12-.05-.1-.12l.05-.22c.1-.41.14-.84.14-1.22,0-1.27-.6-2.23-2.11-2.23-1.7,0-2.74,1.63-2.74,3.22,0,1.32.82,2.42,1.7,3.6.98,1.3,2.04,2.71,2.04,4.66,0,2.78-2.16,4.78-4.97,4.78-.67,0-1.3-.17-1.8-.46-.17-.1-.34-.14-.48-.14-.26,0-.53.14-.72.43,0,.02-.05.05-.07.05h-.36c-.07,0-.1-.05-.1-.12l.96-4.1Z"/><path class="cls-1" d="m96.79,313.61l.1-.43s.05-.07.1-.07c.7,0,1.3-.41,1.44-1.03l3.34-14.35h-1.49c-1.3,0-2.04,2.74-2.26,3.7,0,.05-.05.07-.1.07h-.38c-.07,0-.12-.05-.1-.12l.94-4.18s.05-.07.1-.07h8.33c.07,0,.12.05.1.12l-.94,4.18s-.05.07-.1.07h-.41c-.07,0-.12-.05-.1-.12.1-.48.31-1.42.31-2.21s-.19-1.44-.79-1.44h-1.3l-3.31,14.4c-.02.07-.02.19-.02.26,0,.46.26.72.79.72h.17c.07,0,.12.05.1.12l-.1.43s-.05.07-.1.07h-4.22c-.07,0-.12-.05-.1-.12Z"/><path class="cls-1" d="m108.02,313.17s.05-.07.1-.07h.19c.6,0,1.08-.38,1.25-.98l3.1-13.44c.02-.07.02-.19.02-.26,0-.43-.29-.7-.74-.7h-.19c-.07,0-.1-.05-.1-.12l.07-.41s.05-.07.1-.07h4.22c.07,0,.1.05.1.12l-.07.41s-.05.07-.1.07h-.22c-.58,0-1.1.41-1.25,1.01l-3.1,13.44c-.02.1-.05.19-.05.29,0,.41.31.65.79.65h.19c.07,0,.12.05.1.12l-.1.43s-.02.07-.07.07h-4.25c-.07,0-.1-.05-.1-.12l.1-.43Z"/><path class="cls-1" d="m117.24,313.17s.05-.07.1-.07h.31c.62,0,1.15-.41,1.3-1.03l3.1-13.42c.02-.07.02-.19.02-.26,0-.41-.29-.67-.72-.67h-.38c-.07,0-.1-.05-.1-.12l.07-.41s.05-.07.1-.07h2.71s.1.02.1.07l2.62,11.76,2.35-10.23c.02-.1.05-.22.05-.29,0-.43-.31-.72-.82-.72h-.31c-.07,0-.1-.05-.1-.12l.07-.41s.05-.07.1-.07h3.26c.07,0,.1.05.1.12l-.07.41s-.05.07-.1.07h-.31c-.6,0-1.15.43-1.32,1.06l-3.41,14.88s-.05.07-.1.07h-.34s-.1-.02-.1-.07l-3.05-13.9-2.86,12.36c-.02.07-.02.19-.02.26,0,.46.31.72.79.72h.31c.07,0,.12.05.1.12l-.1.43s-.05.07-.1.07h-3.26c-.07,0-.1-.05-.1-.12l.1-.43Z"/><path class="cls-1" d="m131.76,314.95s.05-.07.07-.07c.77-.12,1.44-.72,1.54-1.08-.58,0-.79-.36-.79-.74,0-.07,0-.17.02-.24.12-.48.58-.98,1.25-.98s.79.41.79.82c0,1.3-1.68,2.66-2.88,2.81-.07,0-.12-.05-.1-.12l.1-.38Z"/><path class="cls-1" d="m150.93,313.61l.1-.43s.02-.07.07-.07c.72,0,1.32-.41,1.46-1.06l3.36-14.52h-1.49c-1.32,0-2.06,2.76-2.28,3.74,0,.05-.05.07-.1.07h-.41c-.07,0-.12-.05-.1-.12l.98-4.22s.05-.07.1-.07h8.42c.07,0,.12.05.1.12l-.98,4.22s-.05.07-.1.07h-.38c-.07,0-.12-.05-.1-.12.1-.48.29-1.39.29-2.23,0-.79-.17-1.46-.79-1.46h-1.3l-3.36,14.57c-.02.1-.02.19-.02.29,0,.43.29.72.79.72h.17c.07,0,.12.05.1.12l-.1.43s-.05.07-.1.07h-4.25c-.07,0-.12-.05-.1-.12Z"/><path class="cls-1" d="m161.61,313.61l.1-.43s.05-.07.1-.07h.6c.65,0,1.37-.41,1.78-1.03l3.62-6.02-1.03-7.51c-.1-.58-.58-1.01-1.22-1.01h-.19c-.07,0-.12-.05-.1-.12l.1-.41s.05-.07.1-.07h4.27c.07,0,.12.05.1.12l-.1.41s-.05.07-.1.07h-.14c-.46,0-.77.22-.84.5v.36l.7,4.99,3-5.02c.07-.12.14-.26.17-.36,0-.02,0-.1.02-.12-.02-.22-.19-.36-.58-.36h-.65c-.07,0-.12-.05-.1-.12l.1-.41s.05-.07.1-.07h3.96c.07,0,.12.05.1.12l-.1.41s-.05.07-.1.07h-.6c-.65,0-1.42.46-1.8,1.03l-3.38,5.78c.38,2.54.77,5.21,1.13,7.8.05.55.55.96,1.27.96.07,0,.12.05.1.12l-.1.43s-.05.07-.1.07h-4.25c-.07,0-.12-.05-.1-.12l.1-.43s.05-.07.1-.07c.53,0,.89-.22.98-.5v-.38l-.7-5.26c-1.08,1.75-2.11,3.55-3.19,5.3-.07.14-.14.26-.17.38-.02.05-.02.07-.02.1,0,.22.22.36.58.36h.62c.07,0,.12.05.1.12l-.1.43s-.05.07-.1.07h-3.94c-.07,0-.12-.05-.1-.12Z"/><path class="cls-1" d="m2.18,281.09c-.13,0-.21-.08-.17-.21l.17-.76c0-.08.08-.13.17-.13,1.26,0,2.31-.71,2.56-1.85l5.46-23.65c.04-.13.04-.29.04-.42,0-.8-.63-1.34-1.68-1.34-.13,0-.21-.08-.17-.21l.17-.71c0-.08.08-.13.17-.13h7.48c.13,0,.21.08.17.21l-.17.71c0,.08-.08.13-.17.13h-.29c-1.09,0-2.06.8-2.31,1.85l-5.88,25.41h3.99c2.94,0,4.37-4.07,4.92-6.34,0-.08.08-.13.17-.13h.67c.13,0,.21.08.17.21l-1.64,7.23c0,.08-.08.13-.17.13H2.18Z"/><path class="cls-1" d="m24.95,280.88l.17-.76c0-.08.08-.13.17-.13h.29c1.09,0,1.97-.71,2.27-1.76l5.46-23.82c.04-.13.04-.34.04-.46,0-.71-.5-1.22-1.34-1.22h-.34c-.13,0-.21-.08-.17-.21l.17-.71c0-.08.08-.13.17-.13h7.48c.13,0,.21.08.17.21l-.17.71c0,.08-.08.13-.17.13h-.34c-1.09,0-2.02.76-2.27,1.76l-5.46,23.82c-.04.17-.08.34-.08.5,0,.71.55,1.18,1.43,1.18h.29c.13,0,.21.08.17.21l-.17.76c0,.08-.04.13-.13.13h-7.48c-.13,0-.21-.08-.17-.21Z"/><path class="cls-1" d="m43.89,272.15c0-1.81.25-3.82.71-5.8,1.76-7.35,6.51-14.87,12.43-14.87.84,0,1.6.21,2.23.38.42.13.71.21,1.05.21.25,0,.42-.08.67-.34.04,0,.08-.04.13-.04h.46c.13,0,.21.08.17.21l-1.72,7.35c0,.08-.08.13-.13.13h-.71c-.13,0-.21-.08-.17-.21.25-1.13.5-2.35.5-3.49,0-1.76-.63-3.15-2.69-3.15-3.74,0-7.18,6.93-8.78,13.9-.59,2.44-.92,4.92-.92,7.06,0,3.74,1.05,6.51,3.28,6.72,2.27-.13,3.49-2.52,4.37-6.34l1.34-5.71c.04-.13.04-.29.04-.42,0-.84-.59-1.39-1.68-1.39-.13,0-.21-.08-.17-.21l.17-.71c0-.08.08-.13.17-.13h7.1c.13,0,.21.08.17.21l-.17.71c0,.08-.08.13-.17.13h-.25c-1.13,0-2.06.8-2.31,1.89l-2.94,12.73c0,.08-.08.13-.17.13h-.76c-.13,0-.21-.08-.17-.21.08-.29.13-.59.13-.88,0-.34-.08-.63-.46-.63-.8,0-1.81,1.26-1.81,1.26,0,.04-.08.08-.13.08s-.08-.04-.13-.08c-.67.42-1.43.67-2.39.67-4.45,0-6.3-4.03-6.3-9.16Z"/><path class="cls-1" d="m66.4,280.88l.17-.76c0-.08.08-.13.17-.13h.21c1.13,0,2.1-.71,2.35-1.85l5.46-23.65c.04-.13.04-.29.04-.42,0-.8-.63-1.34-1.68-1.34-.13,0-.21-.08-.17-.21l.17-.71c0-.08.08-.13.17-.13h7.48c.13,0,.21.08.17.21l-.17.71c0,.08-.08.13-.17.13h-.29c-1.09,0-2.06.8-2.31,1.85l-2.39,10.25h7.86l2.39-10.33c.04-.13.04-.34.04-.46,0-.76-.55-1.3-1.39-1.3h-.29c-.13,0-.21-.08-.17-.21l.17-.71c0-.08.08-.13.17-.13h7.52c.13,0,.21.08.17.21l-.17.71c0,.08-.08.13-.17.13h-.29c-1.13,0-2.06.8-2.31,1.85l-5.46,23.65c-.04.17-.04.34-.04.5,0,.76.5,1.26,1.43,1.26h.25c.13,0,.21.08.17.21l-.17.76c0,.08-.08.13-.17.13h-7.44c-.13,0-.21-.08-.17-.21l.17-.76c0-.08.08-.13.13-.13,1.26,0,2.31-.71,2.56-1.85l2.81-12.27h-7.86l-2.81,12.35c-.04.13-.04.34-.04.46,0,.8.55,1.3,1.43,1.3h.25c.13,0,.21.08.17.21l-.17.76c0,.08-.04.13-.13.13h-7.48c-.13,0-.21-.08-.17-.21Z"/><path class="cls-1" d="m97.73,280.88l.17-.76c0-.08.04-.13.13-.13,1.26,0,2.31-.71,2.56-1.85l5.88-25.41h-2.6c-2.31,0-3.61,4.83-3.99,6.55,0,.08-.08.13-.17.13h-.71c-.13,0-.21-.08-.17-.21l1.72-7.39c0-.08.08-.13.17-.13h14.74c.13,0,.21.08.17.21l-1.72,7.39c0,.08-.08.13-.17.13h-.67c-.13,0-.21-.08-.17-.21.17-.84.5-2.44.5-3.91,0-1.39-.29-2.56-1.39-2.56h-2.27l-5.88,25.5c-.04.17-.04.34-.04.5,0,.76.5,1.26,1.39,1.26h.29c.13,0,.21.08.17.21l-.17.76c0,.08-.08.13-.17.13h-7.44c-.13,0-.21-.08-.17-.21Z"/><path class="cls-1" d="m122.89,252.53l.17-.71c0-.08.08-.13.17-.13h7.73c.13,0,.21.08.17.21l-.17.71c0,.08-.08.13-.17.13h-.34c-.97,0-1.64.55-1.76,1.3-.04.13-.08.29-.08.42l-.55,18.65,9.41-21.34s.13-.08.17-.08h.71c.08,0,.17.08.17.17l-.84,21.21c2.73-6.22,5.54-12.43,8.28-18.74.08-.13.13-.29.17-.46.04-.08.04-.17.04-.29,0-.5-.42-.84-1.13-.84h-1.13c-.13,0-.21-.08-.17-.21l.17-.71c0-.08.08-.13.17-.13h6.81c.13,0,.21.08.17.21l-.17.71c0,.08-.08.13-.17.13h-.92c-1.18,0-2.27.84-2.77,1.85l-11.72,26.63s-.13.08-.17.08h-.71c-.08,0-.17-.08-.17-.17l.71-21.13-9.33,21.21s-.13.08-.17.08h-.67c-.08,0-.17-.08-.17-.17l.71-26.63c-.04-.97-.71-1.76-1.81-1.76h-.46c-.13,0-.21-.08-.17-.21Z"/><path class="cls-1" d="m152.8,272.15c0-1.81.25-3.82.71-5.8,1.76-7.35,6.51-14.87,12.48-14.87,4.41,0,6.34,4.07,6.34,9.2,0,1.81-.25,3.82-.71,5.75-1.81,7.35-6.55,14.87-12.48,14.87-4.49,0-6.34-4.03-6.34-9.16Zm4.16-5.71c-.59,2.52-.92,5.08-.92,7.27,0,3.78.97,6.51,3.32,6.51,3.74,0,7.18-6.93,8.82-13.9.59-2.52.88-5.12.88-7.31,0-3.74-.92-6.47-3.28-6.47-3.78,0-7.23,6.93-8.82,13.9Z"/><path class="cls-1" d="m176.65,280.88l.17-.76c0-.08.08-.13.17-.13,1.26,0,2.31-.71,2.56-1.85l5.46-23.65c.04-.13.04-.29.04-.42,0-.8-.63-1.34-1.68-1.34-.13,0-.21-.08-.17-.21l.17-.71c0-.08.08-.13.17-.13h7.27c4.54.04,6.64,2.56,6.64,5.46,0,4.33-3.78,7.35-7.81,8.11,2.23,1.09,2.69,3.15,2.69,5.42,0,1.01-.13,2.06-.21,3.11-.13.97-.21,1.89-.21,2.73,0,2.06.63,3.53,3.44,3.57.13,0,.21.08.17.21l-.17.67c0,.08-.04.13-.13.13-.13,0-.34,0-.5.04-4.37,0-6.22-1.51-6.22-5.88,0-.92.08-1.93.17-2.86l.04-.34c.04-.88.13-1.72.13-2.56,0-2.1-.55-3.86-3.11-4.03l-2.94,12.77c-.04.13-.04.34-.04.46,0,.8.55,1.3,1.43,1.3h.25c.13,0,.21.08.17.21l-.17.76c0,.08-.04.13-.13.13h-7.48c-.13,0-.21-.08-.17-.21Zm9.33-16.42h1.64c3.86,0,6.51-4.07,6.51-7.65,0-2.23-1.13-4.07-3.74-4.07h-1.72l-2.69,11.72Z"/><path class="cls-1" d="m202.73,280.88l.17-.76c0-.08.08-.13.17-.13h.21c1.13,0,2.1-.71,2.35-1.85l5.46-23.65c.04-.13.04-.29.04-.42,0-.8-.63-1.34-1.68-1.34-.13,0-.21-.08-.17-.21l.17-.71c0-.08.08-.13.17-.13h7.48c.13,0,.21.08.17.21l-.17.71c0,.08-.08.13-.17.13h-.29c-1.09,0-2.06.8-2.31,1.85l-2.06,8.86c3.36-3.23,6.76-6.51,10.08-9.7.29-.25.5-.55.55-.71v-.04c0-.13-.29-.25-.8-.25h-1.18c-.13,0-.21-.08-.17-.21l.17-.71c0-.08.08-.13.17-.13h6.76c.13,0,.21.08.17.21l-.17.71c0,.08-.08.13-.17.13h-.8c-1.22,0-2.69.71-3.65,1.55l-10.71,10.25c4.92.42,5.88,3.02,5.88,6.09,0,1.05-.13,2.14-.25,3.19-.08.92-.17,1.85-.17,2.65,0,2.1.59,3.61,3.4,3.65.13,0,.17.08.17.21l-.13.71c0,.08-.04.13-.13.13-.13,0-.34,0-.55.04-4.33,0-6.13-1.6-6.18-5.88,0-.92.08-1.97.17-2.9v-.25c.08-.76.13-1.55.13-2.31,0-2.27-.5-4.07-3.07-4.37l-2.94,12.73c-.04.13-.04.34-.04.46,0,.8.55,1.3,1.43,1.3h.25c.13,0,.21.08.17.21l-.17.76c0,.08-.04.13-.13.13h-7.48c-.13,0-.21-.08-.17-.21Z"/><path class="cls-2" d="m229.72,117.69c0-.35,0-.7.01-1.05l-78.06-25.47c.3-.95.57-1.92.8-2.9l76.8,16.43c-.03-.35-.06-.7-.09-1.04l-76.48-16.36c.2-.98.36-1.97.48-2.97l74.28,7.9c-.07-.34-.15-.69-.22-1.03l-73.94-7.87c.1-.99.15-2,.17-3.01l70.92.09c-.11-.33-.22-.67-.32-1l-70.57-.09c0-1.02-.06-2.02-.14-3.02l66.88-6.94c-.14-.32-.28-.64-.42-.96l-66.55,6.91c-.11-1.01-.26-2-.45-2.99l62.34-13.17c-.17-.3-.34-.61-.51-.91l-62.03,13.1c-.21-.99-.47-1.97-.76-2.93l57.46-18.59c-.2-.29-.39-.57-.6-.86l-57.17,18.49c-.32-.96-.66-1.91-1.05-2.84l52.36-23.23c-.22-.27-.45-.53-.67-.8l-52.09,23.11c-.42-.92-.86-1.83-1.35-2.72l47.17-27.15c-.25-.24-.5-.48-.74-.73l-46.92,27.01c-.51-.88-1.05-1.73-1.63-2.56l41.97-30.41c-.26-.22-.53-.44-.79-.66l-41.75,30.25c-.6-.82-1.23-1.61-1.89-2.37l36.82-33.07c-.28-.2-.56-.39-.84-.59l-36.63,32.9c-.68-.75-1.4-1.47-2.14-2.16l31.77-35.2c-.29-.17-.58-.35-.88-.52l-31.63,35.04c-.76-.68-1.54-1.32-2.35-1.94l26.86-36.87c-.3-.15-.61-.29-.92-.44l-26.74,36.71c-.82-.59-1.67-1.17-2.54-1.69l22.08-38.14c-.31-.12-.63-.24-.95-.36l-22,38c-.88-.51-1.78-.98-2.7-1.42l17.46-39.09c-.32-.1-.64-.19-.97-.29l-17.41,38.96c-.93-.41-1.88-.78-2.84-1.12l12.97-39.75c-.33-.07-.65-.14-.98-.21l-12.94,39.64c-.97-.31-1.95-.57-2.95-.81L132.31,1.78c-.33-.05-.66-.09-.99-.14l-8.58,40.1c-.99-.2-2-.36-3.02-.48L124.02.84c-.33-.03-.67-.04-1-.07l-4.29,40.37c-1.02-.1-2.06-.15-3.11-.17V.51c-.17,0-.33,0-.5,0s-.33,0-.5,0v40.46c-1.01,0-2.02.06-3.01.15L107.42.76c-.33.02-.67.04-1,.06l4.19,40.38c-1.02.12-2.03.27-3.03.47L99.13,1.62c-.33.05-.66.09-.99.14l8.48,40.13c-1,.22-1.99.48-2.97.78L90.84,3.09c-.33.07-.66.14-.98.21l12.84,39.68c-.97.33-1.93.69-2.87,1.09L82.58,5.19c-.32.1-.65.19-.97.29l17.3,39c-.93.43-1.84.89-2.73,1.39L74.37,7.97c-.32.12-.63.24-.95.36l21.9,38.04c-.88.52-1.73,1.09-2.57,1.68l-26.53-36.62c-.31.14-.62.29-.92.43l26.64,36.76c-.82.61-1.61,1.26-2.37,1.94L58.18,15.62c-.3.17-.59.34-.88.52l31.52,35.1c-.75.69-1.47,1.42-2.16,2.17L50.3,20.58c-.28.19-.56.39-.84.58l36.54,32.98c-.67.77-1.32,1.56-1.93,2.38l-41.44-30.19c-.27.22-.53.44-.8.66l41.66,30.35c-.59.83-1.14,1.69-1.66,2.57l-46.59-26.98c-.25.24-.5.48-.74.73l46.83,27.12c-.5.89-.95,1.8-1.38,2.73l-51.74-23.11c-.23.26-.45.53-.67.79l52,23.23c-.4.93-.75,1.89-1.08,2.86l-56.79-18.53c-.2.28-.4.57-.6.86l57.08,18.63c-.3.97-.55,1.96-.77,2.96l-61.65-13.19c-.17.3-.34.61-.51.91l61.96,13.25c-.19.99-.35,2-.46,3.02l-66.17-7.04c-.14.32-.28.64-.42.96l66.5,7.07c-.09,1.01-.14,2.02-.14,3.04l-70.21-.09c-.11.33-.22.67-.32,1l70.54.09c.02,1.02.07,2.04.17,3.04L3.06,90.9c-.07.34-.15.68-.22,1.03l73.93-7.68c.13,1.01.28,2.02.48,3L1.09,103.34c-.04.35-.06.7-.09,1.04l76.48-16.16c.23.99.5,1.97.8,2.93L.5,116.32c0,.35,0,.7.01,1.05l78.09-25.26c.33.96.7,1.9,1.11,2.82L1.4,129.68c.04.34.1.69.14,1.03l78.58-34.87c.43.92.9,1.81,1.4,2.69L3.95,143.19c.08.34.17.67.26,1.01l77.82-44.8c.52.86,1.09,1.7,1.68,2.52L8.23,156.61c.12.32.25.64.38.96l75.69-54.85c.61.8,1.25,1.58,1.92,2.33L14.27,169.67c.16.3.33.6.5.9l72.13-64.78c.69.73,1.4,1.45,2.14,2.13L22.08,182.09c.2.28.4.55.6.83l67.11-74.35c.76.66,1.54,1.29,2.35,1.89l-60.57,83.15c.23.25.46.5.7.74l60.69-83.31c.82.58,1.67,1.12,2.53,1.63l-52.85,91.27c.26.21.52.42.79.63l52.93-91.4c.88.49,1.77.93,2.69,1.35l-43.92,98.3c.29.18.57.35.86.53l43.97-98.41c.92.39,1.86.74,2.82,1.06l-33.95,104.03c.31.14.61.27.92.4l33.98-104.12c.95.29,1.93.54,2.91.76l-23.16,108.27c.32.09.64.18.97.27l23.17-108.33c.98.19,1.97.34,2.97.46l-11.79,110.87c.33.05.66.09.99.14l11.8-110.91c1.01.09,2.02.14,3.05.15v52.54c-2.97.25-5.3,2.74-5.3,5.78,0,3.21,2.6,5.8,5.8,5.8s5.8-2.6,5.8-5.8c0-3.04-2.33-5.52-5.3-5.78v-52.55c.99-.02,1.98-.07,2.95-.16l11.52,110.98c.33-.04.66-.09.99-.14l-11.52-110.95c1-.12,1.99-.27,2.96-.46l22.91,108.46c.32-.09.65-.17.97-.26l-22.9-108.42c.98-.22,1.95-.47,2.9-.77l33.75,104.32c.31-.13.61-.27.92-.4l-33.72-104.23c.95-.32,1.89-.68,2.8-1.07l43.78,98.67c.29-.17.58-.34.86-.52l-43.73-98.56c.91-.42,1.8-.87,2.67-1.36l52.79,91.71c.26-.21.53-.42.79-.64l-52.71-91.57c.86-.51,1.7-1.06,2.51-1.63l60.61,83.64c.24-.24.47-.49.7-.74l-60.5-83.49c.8-.6,1.58-1.23,2.33-1.89l67.1,74.71c.2-.27.4-.55.6-.83l-66.95-74.54c.74-.68,1.44-1.38,2.13-2.11l72.17,65.15c.17-.3.34-.59.5-.9l-72-64.99c.66-.75,1.3-1.52,1.9-2.32l75.8,55.22c.13-.32.26-.64.38-.96l-75.6-55.07c.58-.81,1.14-1.64,1.66-2.5l77.99,45.16c.09-.33.18-.67.26-1l-77.76-45.02c.5-.87.96-1.76,1.39-2.66l78.81,35.21c.05-.34.1-.69.14-1.03l-78.54-35.09c.4-.92.77-1.85,1.1-2.8l78.37,25.57Zm-114.74-1.7c-20.14,0-36.52-16.38-36.52-36.52s16.38-36.52,36.52-36.52,36.52,16.38,36.52,36.52-16.38,36.52-36.52,36.52Z"/></g></g></svg>
